<svg height="512pt" viewBox="-16 0 512 512" width="512pt" xmlns="http://www.w3.org/2000/svg"><path d="m210 363.570312v-62.570312h-62.570312c-6.191407-17.460938-22.871094-30-42.429688-30s-36.238281 12.539062-42.429688 30h-62.570312v211h210v-63.570312c-17.828125-6.320313-30-23.257813-30-42.429688 0-19.148438 12.148438-36.101562 30-42.429688zm0 0" fill="#725d57"/><path d="m417.429688 271c-6.363282 17.933594-23.386719 30-42.429688 30-19.148438 0-36.101562-12.148438-42.429688-30h-62.570312v62.570312c-17.460938 6.191407-30 22.871094-30 42.429688s12.539062 36.238281 30 42.429688v62.570312h210v-210zm0 0" fill="#57d9ad"/><path d="m210 93.570312v-62.570312h-210v210h62.570312c6.320313-17.828125 23.257813-30 42.429688-30 19.148438 0 36.101562 12.148438 42.429688 30h62.570312v-62.570312c17.460938-6.191407 30-22.871094 30-42.429688s-12.539062-36.238281-30-42.429688zm0 0" fill="#ffda2d"/><path d="m270 0v63.570312c17.824219 6.320313 30 23.253907 30 42.429688 0 19.144531-12.152344 36.101562-30 42.429688v62.570312h62.570312c6.191407 17.460938 22.871094 30 42.429688 30s36.238281-12.539062 42.429688-30h62.570312v-211zm0 0" fill="#ff637b"/><path d="m480 0v211h-62.570312c-6.191407 17.460938-22.871094 30-42.429688 30v-241zm0 0" fill="#e63950"/><path d="m480 271v210h-105v-180c19.027344 0 36.0625-12.054688 42.429688-30zm0 0" fill="#26bfa6"/><path d="m240 136c0 19.558594-12.539062 36.238281-30 42.429688v62.570312h-62.570312c-6.328126-17.851562-23.28125-30-42.429688-30v-180h105v62.570312c17.460938 6.191407 30 22.871094 30 42.429688zm0 0" fill="#fdbf00"/><path d="m180 406c0 19.171875 12.171875 36.109375 30 42.429688v63.570312h-105v-241c19.558594 0 36.238281 12.539062 42.429688 30h62.570312v62.570312c-17.851562 6.328126-30 23.28125-30 42.429688zm0 0" fill="#53433f"/></svg>